<svg t="1598169312149" class="icon" viewBox="0 0 1024 1024" version="1.1" xmlns="http://www.w3.org/2000/svg" p-id="13953" width="200" height="200"><path d="M835.797333 277.632h-302.378666l-39.466667-84.48A38.101333 38.101333 0 0 0 459.093333 170.666667H166.144A38.485333 38.485333 0 0 0 128 209.493333V762.88c0 33.493333 26.666667 60.629333 59.52 60.629333h648.96c32.853333 0 59.52-27.136 59.52-60.629333v-424.533333c0-16.213333-6.4-31.744-17.664-43.093334a58.965333 58.965333 0 0 0-42.538667-17.578666z m-324.48 425.216l-139.136-177.834667h84.949334v-79.744h108.373333v79.744h84.309333l-138.496 177.834667z" p-id="13954" fill="#757575"></path></svg>