<svg t="1598343189784" class="icon" viewBox="0 0 2298 1024" version="1.1" xmlns="http://www.w3.org/2000/svg" p-id="2480" width="200" height="200"><path d="M1775.939034 322.604391a497.446778 497.446778 0 0 1 55.154544-6.211098 1034.7688 1034.7688 0 0 1 18.633291 156.954428 2878.843571 2878.843571 0 0 0-44.595678 9.999866c-2.981327-20.558732-28.571047-147.886225-29.067935-160.929529M1850.906978 308.070423l20.558732 162.979192c10.558865-0.496888 53.166992-3.540325 57.142094-4.037213-6.211097-61.676196-16.521519-158.941978-16.521518-158.941979a156.954427 156.954427 0 0 0-61.179308 0m-40.372132 226.08394a355.77165 355.77165 0 0 1 126.333718-12.049529c17.018406 61.676196 48.136004 407.634312 51.11733 421.671392-21.05562 2.484439-90.247243 8.509203-95.775119 9.999866-4.534101-26.086608-81.73804-403.100211-81.73804-419.68384m343.473677-207.57487a540.924459 540.924459 0 0 1 55.154544-1.490663 1280.169252 1280.169252 0 0 1 0.496888 157.948202l-44.595679 4.037214c-0.993776-20.061844-12.049529-146.89245-11.055753-160.432642m75.837498-3.975102l4.037213 160.929529c10.558865 0 52.670105 2.484439 57.142094 1.987551-0.993776-61.676196 0-158.941978 0-158.941978a277.014937 277.014937 0 0 0-61.179307-4.037213m-64.719634 216.146184a361.796414 361.796414 0 0 1 126.830606 2.484439c7.01854 72.17295 6.211097 408.628088 7.01854 422.665167-21.552507 0-90.247243 0.993776-95.77512 1.987551-0.993776-26.086608-39.6268-410.615639-38.136137-427.199268m-220.121286-413.659077c54.657656 278.754044 96.272007 755.083092 97.762671 785.703802 0 0 43.105015 0.993776 91.737906 4.037213-28.571047-300.368663-63.663747-780.175924-63.166859-795.703668-12.049529-13.540192-126.333718 6.211097-126.333718 6.211097m-120.308953 659.183751c-10.558865-78.197714-290.306685-166.954294-447.758001-138.383247 0 0-19.564956-172.48217-27.080383-339.436464-6.211097-143.414235-0.993776-282.791257 0.496887-305.834428a1187.748125 1187.748125 0 0 0-185.028587 69.191623 7237.294727 7237.294727 0 0 1 126.706384 952.595984 862.535074 862.535074 0 0 0 230.121153-19.068069c145.401786-28.07416 317.387069-115.836964 302.853101-219.12751m-342.231458 141.116129l-24.844388-177.016271a1281.473583 1281.473583 0 0 1 172.979058 63.166859 1612.711399 1612.711399 0 0 1-148.445224 113.787301M610.675081 322.604391a497.508889 497.508889 0 0 1 55.154543-6.211098 1034.7688 1034.7688 0 0 1 18.633292 156.954428 2878.843571 2878.843571 0 0 0-44.595678 9.999866c-2.981327-20.558732-28.571047-147.886225-29.067935-160.929529m75.216387-14.533968l20.558732 162.979192c10.558865-0.496888 53.166992-3.540325 57.142095-4.037213-6.211097-61.676196-16.521519-158.941978-16.521519-158.941979a156.954427 156.954427 0 0 0-61.179308 0M645.333003 534.154363a355.77165 355.77165 0 0 1 126.333718-12.049529c17.018406 61.676196 48.136004 407.634312 51.117331 421.671392-21.05562 2.484439-90.247243 8.509203-95.77512 9.999866-4.534101-26.086608-81.73804-403.100211-81.73804-419.68384m343.473678-207.57487a540.924459 540.924459 0 0 1 55.154543-1.490663 1280.293474 1280.293474 0 0 1 0.496888 157.948202l-44.595678 4.037214c-0.993776-20.061844-11.552641-146.89245-11.055753-160.432642m75.713275-4.037213l3.85088 160.99164c10.558865 0 52.670105 2.484439 57.142095 1.987551-0.993776-61.676196 0-158.941978 0-158.941978a311.175972 311.175972 0 0 0-61.179308-4.037213M999.986656 538.688464a361.796414 361.796414 0 0 1 126.830606 2.484439c7.01854 72.17295 6.211097 408.628088 7.018539 422.665167-21.552507 0-90.247243 0.993776-95.775119 1.987551-0.496888-26.086608-39.6268-410.615639-38.136137-427.199268m-220.121286-413.659077c54.657656 278.754044 96.272007 755.083092 97.76267 785.703802 0 0 43.105015 0.993776 91.737906 4.037213-28.571047-300.368663-63.663747-780.175924-63.166858-796.200556-12.049529-13.043304-126.333718 6.211097-126.333718 6.211098m-120.433176 659.680638c-10.558865-78.197714-290.306685-166.954294-447.758-138.383247 0 0-19.564956-172.48217-27.080384-339.436464-6.211097-143.414235-0.993776-282.791257 0.496888-305.834428A1243.710112 1243.710112 0 0 0 0 69.874844a7237.294727 7237.294727 0 0 1 126.333718 952.658095 862.535074 862.535074 0 0 0 230.121153-19.068069c145.401786-28.07416 317.387069-115.836964 302.853101-219.12751M317.387069 925.453489l-24.844389-177.016271a1281.473583 1281.473583 0 0 1 173.289613 63.042637A1612.711399 1612.711399 0 0 1 317.387069 925.453489" p-id="2481" fill="#fb7299" data-spm-anchor-id="a313x.7781069.0.i6"></path></svg>