<svg t="1598169241939" class="icon" viewBox="0 0 1024 1024" version="1.1" xmlns="http://www.w3.org/2000/svg" p-id="11980" width="200" height="200"><path d="M752.128 939.008c-9.728 0-20.992-3.072-30.208-8.192L514.048 826.88 304.64 930.816c-20.992 11.264-48.128 9.728-67.072-4.608-19.456-14.336-30.208-39.936-25.6-64l43.008-224.256-164.864-153.6c-17.408-17.408-24.064-45.056-17.408-67.072 8.192-24.064 27.136-41.472 52.736-45.056l228.864-41.472 102.4-207.872c11.264-22.528 33.792-36.864 57.856-36.864s48.128 14.336 57.856 36.864l102.4 207.872 228.864 39.936c24.064 3.072 44.544 20.992 51.2 45.056 8.192 24.064 1.536 49.664-15.872 67.072L774.144 637.952l41.472 224.256c4.608 25.6-6.656 49.664-25.6 64-10.752 8.192-23.552 12.8-37.888 12.8z" p-id="11981" fill="#757575"></path></svg>